# xmcd CD database file
#
# Track frame offsets:
#	150
#	19183
#	36519
#	48704
#	64189
#	82854
#	97212
#	109938
#	129129
#	141165
#	155012
#	170528
#
# Disc length: 2503 seconds
#
# Revision: 2
# Processed by: cddbd v1.5.1PL2 Copyright (c) Steve Scherf et al.
# Submitted via: CDex 1.50
#
DISCID=a709c50c
DTITLE=Variados - Country Collection - Volume 10
DYEAR=1997
DGENRE=Country
TTITLE0=Bellamy Brothers - Twang Town
TTITLE1=Clinton Gregory - Play, Ruby, Play
TTITLE2=Bob Woodruff - Out Of The Blue
TTITLE3=Steve Haggard - All Up To You
TTITLE4=Alna Paul - Ride Like The Wind
TTITLE5=Billy Call - Heart Of Gold
TTITLE6=Willie And River South - Mexico
TTITLE7=Gretchen Peters - The Secret Of Life
TTITLE8=David Parsons - Kind Of Hush
TTITLE9=Samantha Blue - Heads Caroline
TTITLE10=Mad Line - Blame If On Your Heart
TTITLE11=Western Flyer - Back In America
EXTD=YEAR: 1997
EXTT0=
EXTT1=
EXTT2=
EXTT3=
EXTT4=
EXTT5=
EXTT6=
EXTT7=
EXTT8=
EXTT9=
EXTT10=
EXTT11=
PLAYORDER=
